HIERARCHY
ROOT Hips
{
	OFFSET 0.00000 0.00000 0.00000
	CHANNELS 6 Xposition Yposition Zposition Zrotation Yrotation Xrotation 
	JOINT LHipJoint
	{
		OFFSET 0 0 0
		CHANNELS 3 Zrotation Yrotation Xrotation
		JOINT LeftUpLeg
		{
			OFFSET 1.44361 -1.63093 0.70831
			CHANNELS 3 Zrotation Yrotation Xrotation
			JOINT LeftLeg
			{
				OFFSET 2.20103 -6.04728 0.00000
				CHANNELS 3 Zrotation Yrotation Xrotation
				JOINT LeftFoot
				{
					OFFSET 2.54154 -6.98283 0.00000
					CHANNELS 3 Zrotation Yrotation Xrotation
					JOINT LeftToeBase
					{
						OFFSET 0.05971 -0.16406 1.77582
						CHANNELS 3 Zrotation Yrotation Xrotation
						End Site
						{
							OFFSET 0.00000 -0.00000 0.90832
						}
					}
				}
			}
		}
	}
	JOINT RHipJoint
	{
		OFFSET 0 0 0
		CHANNELS 3 Zrotation Yrotation Xrotation
		JOINT RightUpLeg
		{
			OFFSET -1.65838 -1.63093 0.70830
			CHANNELS 3 Zrotation Yrotation Xrotation
			JOINT RightLeg
			{
				OFFSET -2.26926 -6.23475 0.00000
				CHANNELS 3 Zrotation Yrotation Xrotation
				JOINT RightFoot
				{
					OFFSET -2.34808 -6.45129 0.00000
					CHANNELS 3 Zrotation Yrotation Xrotation
					JOINT RightToeBase
					{
						OFFSET -0.18633 -0.51195 1.68539
						CHANNELS 3 Zrotation Yrotation Xrotation
						End Site
						{
							OFFSET -0.00000 -0.00000 0.88927
						}
					}
				}
			}
		}
	}
	JOINT LowerBack
	{
		OFFSET 0 0 0
		CHANNELS 3 Zrotation Yrotation Xrotation
		JOINT Spine
		{
			OFFSET -0.10393 2.01691 0.06920
			CHANNELS 3 Zrotation Yrotation Xrotation
			JOINT Spine1
			{
				OFFSET 0.04092 2.01302 -0.05283
				CHANNELS 3 Zrotation Yrotation Xrotation
				JOINT Neck
				{
					OFFSET 0 0 0
					CHANNELS 3 Zrotation Yrotation Xrotation
					JOINT Neck1
					{
						OFFSET -0.02870 1.58978 -0.03113
						CHANNELS 3 Zrotation Yrotation Xrotation
						JOINT Head
						{
							OFFSET 0.11532 1.54326 -0.29195
							CHANNELS 3 Zrotation Yrotation Xrotation
							End Site
							{
								OFFSET 0.04056 1.59999 -0.09535
							}
						}
					}
				}
				JOINT LeftShoulder
				{
					OFFSET 0 0 0
					CHANNELS 3 Zrotation Yrotation Xrotation
					JOINT LeftArm
					{
						OFFSET 3.30641 1.15764 0.01104
						CHANNELS 3 Zrotation Yrotation Xrotation
						JOINT LeftForeArm
						{
							OFFSET 4.63208 -0.00000 0.00000
							CHANNELS 3 Zrotation Yrotation Xrotation
							JOINT LeftHand
							{
								OFFSET 3.41924 -0.00000 -0.00000
								CHANNELS 3 Zrotation Yrotation Xrotation
								JOINT LeftFingerBase
								{
									OFFSET 0 0 0
									CHANNELS 3 Zrotation Yrotation Xrotation
									JOINT LeftHandIndex1
									{
										OFFSET 0.62537 -0.00000 -0.00000
										CHANNELS 3 Zrotation Yrotation Xrotation
										End Site
										{
											OFFSET 0.50419 -0.00000 -0.00000
										}
									}
								}
								JOINT LThumb
								{
									OFFSET 0 0 0
									CHANNELS 3 Zrotation Yrotation Xrotation
									End Site
									{
										OFFSET 0.51189 -0.00000 0.51189
									}
								}
							}
						}
					}
				}
				JOINT RightShoulder
				{
					OFFSET 0 0 0
					CHANNELS 3 Zrotation Yrotation Xrotation
					JOINT RightArm
					{
						OFFSET -3.78081 1.02180 -0.16609
						CHANNELS 3 Zrotation Yrotation Xrotation
						JOINT RightForeArm
						{
							OFFSET -4.40640 -0.00000 -0.00000
							CHANNELS 3 Zrotation Yrotation Xrotation
							JOINT RightHand
							{
								OFFSET -3.44675 -0.00000 0.00000
								CHANNELS 3 Zrotation Yrotation Xrotation
								JOINT RightFingerBase
								{
									OFFSET 0 0 0
									CHANNELS 3 Zrotation Yrotation Xrotation
									JOINT RightHandIndex1
									{
										OFFSET -0.51367 -0.00000 -0.00000
										CHANNELS 3 Zrotation Yrotation Xrotation
										End Site
										{
											OFFSET -0.41414 -0.00000 -0.00000
										}
									}
								}
								JOINT RThumb
								{
									OFFSET 0 0 0
									CHANNELS 3 Zrotation Yrotation Xrotation
									End Site
									{
										OFFSET -0.42046 -0.00000 0.42046
									}
								}
							}
						}
					}
				}
			}
		}
	}
}
MOTION
Frames: 8
Frame Time: 0.25
0.00 0.00 0.00 0 0 0 0 0 0 -21 0 0 0 0 0 0 0 0 0 0 0 0 0 0 21 0 0 0 0 0 0 0 0 0 0 0 0 0 0 0 0 0 0 0 0 0 0 -16 0 0 21 0 0 11 0 0 0 -8 0 0 0 0 0 0 0 0 0 0 0 0 0 0 0 0 0 0 0 0 8 0 0 0 0 0 0 0 0 0 0 0 0 0 0 0 0 0
0.00 0.00 0.00 48.0275 -83.9663 -38.0981 0.0000 0.0000 0.0000 -10.6279 -12.8246 -12.5088 1.6523 8.1008 23.0205 0.8482 4.2539 -19.4419 13.2614 -18.8745 -69.9354 0.0000 0.0000 0.0000 8.2679 6.4006 -6.5116 -0.5154 -4.6012 12.7746 -1.1523 0.7190 -20.0710 -3.0149 10.7191 -31.3382 -6.7225 -0.0197 -4.7843 -0.8877 0.3209 -0.5447 2.8741 0.0966 2.0900 -3.9885 2.2779 -9.4376 2.7905 3.2146 13.5891 1.7636 1.5331 5.5366 -0.0000 -0.0000 0.0000 -89.1945 7.9455 44.4641 107.4927 -58.8116 -75.0887 -0.0000 -0.0000 3.7965 59.7032 -19.9251 -30.2536 -7.1250 0.0000 -0.0000 18.5598 -4.1162 -20.9406 -0.0000 -0.0000 0.0000 97.2566 -14.6206 14.6437 -116.6173 57.1459 -82.8304 0.0000 -0.0000 -7.3010 -24.1511 -27.9163 11.8559 7.1250 -0.0000 -0.0000 7.3390 -59.9724 -2.6901
0.00 0.00 0.00 29.2057 -79.5240 -18.6321 0.0000 0.0000 0.0000 6.9592 -8.0368 -27.5826 1.5087 7.7575 21.9798 -0.7466 15.3719 -8.8842 11.3455 -18.1001 -63.8987 0.0000 0.0000 0.0000 -0.7285 9.7089 2.2357 -0.3087 -3.5723 9.8763 -1.2404 -10.6462 -27.3426 -4.9297 13.3042 -40.5182 -6.6145 -0.1591 -0.1171 -1.7572 -0.2526 -0.3539 1.8972 -0.1247 -0.2803 -2.4519 5.8906 -7.0929 -0.9281 8.2358 8.7188 0.5842 3.9211 4.0538 -0.0000 -0.0000 0.0000 -89.7366 1.3034 59.9190 107.9594 -58.7455 -75.4878 -0.0000 -0.0000 5.1664 61.4542 -20.0689 -32.2438 -7.1250 0.0000 -0.0000 19.4525 -5.5793 -22.5339 -0.0000 -0.0000 0.0000 90.8540 -15.6445 4.7802 -116.9564 57.0679 -83.1151 0.0000 -0.0000 -13.2854 -22.0284 -27.7159 10.6571 7.1250 -0.0000 -0.0000 9.6050 -59.2643 -3.3662
0.00 0.00 0.00 19.3439 -76.2647 -7.3339 0.0000 0.0000 0.0000 -1.8212 -3.9348 -40.2541 4.7235 13.0654 39.6139 0.4243 -1.3830 -11.9005 12.0347 -18.4053 -66.0988 0.0000 0.0000 0.0000 -7.0735 10.6981 6.4942 -0.3822 -3.9703 10.9930 -1.3331 -14.9573 -31.6846 -4.8319 13.1920 -40.0915 -8.2728 1.2371 2.3959 -2.2549 1.3587 0.3588 2.2555 0.6861 -1.1151 -0.1754 8.3742 -5.2372 0.3277 11.1639 0.9296 0.4043 5.5809 1.1180 0.0000 0.0000 0.0000 -91.0152 -8.7674 78.9304 102.1640 -59.4335 -70.5143 -0.0000 -0.0000 6.7460 61.3094 -19.9487 -31.9402 -7.1250 0.0000 -0.0000 19.4102 -5.2946 -22.3904 0.0000 0.0000 0.0000 88.4667 -16.4273 -15.4563 -109.2371 58.5545 -76.5789 0.0000 -0.0000 -21.5732 -19.3289 -24.7002 8.3387 7.1250 -0.0000 -0.0000 10.9872 -55.6277 -2.8909
0.00 0.00 0.00 5.2491 -73.3572 11.1772 0.0000 0.0000 0.0000 -1.9026 -8.1334 -48.8014 6.1381 14.5608 45.5334 0.7948 -1.7691 -16.3376 11.9051 -18.3502 -65.6876 0.0000 0.0000 0.0000 -6.6368 11.7727 1.3984 -0.6773 -5.2624 14.6586 -0.4749 -17.2060 -28.2284 -0.9801 6.3018 -17.6628 -8.0223 1.7454 3.8167 -1.9424 1.9271 0.7951 2.3830 0.9732 -1.5191 -1.1477 10.5044 -1.0104 0.1533 14.0535 -7.7684 -0.0241 7.0185 -2.3823 0.0000 -0.0000 0.0000 -91.0262 -16.7791 89.1880 95.7719 -59.8737 -64.9965 -0.0000 -0.0000 8.3602 61.5333 -20.1704 -32.4543 -7.1250 0.0000 -0.0000 19.4652 -5.7878 -22.6148 0.0000 -0.0000 0.0000 88.0448 -13.1862 -25.7968 -86.6361 59.9572 -57.0872 0.0000 -0.0000 -30.0913 -16.4891 -23.6174 6.7630 7.1250 -0.0000 -0.0000 13.3819 -53.9936 -2.9997
0.00 0.00 0.00 -5.5063 -71.3095 25.4440 0.0000 0.0000 0.0000 -0.7332 -10.7723 -50.6195 5.2445 13.6539 41.8684 0.8249 -0.1511 -17.1177 12.2176 -18.4811 -66.6769 0.0000 0.0000 0.0000 -6.6838 14.5746 -0.6786 -0.3639 -3.8751 10.7256 2.3839 -26.2270 -13.3163 -0.5885 4.9114 -13.6562 -8.1877 1.5223 6.2499 -0.2805 1.4496 1.2882 4.1854 0.7625 -2.3666 -2.8098 11.1424 1.0664 0.1582 14.9118 -11.9803 -0.1155 7.4640 -4.3912 0.0000 0.0000 0.0000 -95.0552 -18.9512 90.3584 95.5982 -59.8812 -64.8463 -0.0000 -0.0000 9.5591 61.3997 -20.3748 -32.5607 -7.1250 0.0000 -0.0000 19.3351 -5.9871 -22.5060 0.0000 0.0000 0.0000 84.0026 -10.2046 -29.3589 -67.4974 57.9974 -40.6432 0.0000 -0.0000 -35.4353 -14.2830 -22.0727 5.4647 7.1250 -0.0000 -0.0000 14.8655 -52.0775 -2.6382
0.00 0.00 0.00 5.9543 -76.3435 16.1244 0.0000 0.0000 0.0000 -5.1064 -13.8185 -40.1097 2.2394 9.3480 26.8900 0.0479 10.4345 -15.5830 12.5929 -18.6302 -67.8561 0.0000 0.0000 0.0000 -11.4449 13.2455 -5.8553 -0.1310 -2.3326 6.4259 6.9067 -41.1398 -23.5916 -3.8836 -12.0039 35.7458 -13.3807 3.2619 8.4733 -1.6079 3.0454 2.8545 5.4669 1.4671 -2.3443 1.8191 12.4799 1.0458 -8.3312 16.0048 -14.5907 -3.6335 8.2160 -4.1308 -0.0000 0.0000 0.0000 -91.8937 -15.7616 87.8262 107.1905 -58.8534 -74.8301 -0.0000 -0.0000 7.6559 60.1175 -19.4335 -30.0715 -7.1250 0.0000 -0.0000 18.9228 -3.6818 -21.2617 -0.0000 0.0000 0.0000 87.6887 -7.1978 -30.9246 -73.2403 58.9116 -45.5387 0.0000 -0.0000 -37.5934 -14.0008 -24.3037 5.8594 7.1250 -0.0000 -0.0000 16.2022 -54.2007 -3.7385
0.00 0.00 0.00 6.7645 -76.4455 14.6645 0.0000 0.0000 0.0000 -6.7508 -14.9563 -38.0705 2.0879 9.0468 25.9419 0.1650 10.2202 -16.9242 12.0080 -18.3940 -66.0142 0.0000 0.0000 0.0000 -11.3608 15.3424 -4.7873 -0.1116 -2.1538 5.9310 3.2611 -38.0170 -40.7408 -7.1417 -15.4501 49.4082 -14.7266 3.0570 7.6294 -1.3101 2.8170 2.6920 6.5862 1.3494 -2.0694 1.9363 12.4746 1.2374 -7.5768 16.0944 -14.3530 -3.4091 8.2139 -4.1342 -0.0000 0.0000 0.0000 -91.7800 -15.7903 88.8213 106.4268 -58.9554 -74.1761 -0.0000 -0.0000 7.5074 59.6360 -19.6795 -29.8911 -7.1250 0.0000 -0.0000 18.5943 -3.7125 -20.8594 -0.0000 0.0000 0.0000 87.5524 -8.0268 -31.4154 -72.1190 58.7567 -44.5792 0.0000 -0.0000 -37.0261 -13.3760 -23.9559 5.5149 7.1250 -0.0000 -0.0000 16.6450 -53.7488 -3.6590
